<mxfile host="app.diagrams.net" modified="2023-02-17T04:40:57.759Z" agent="5.0 (Windows NT 10.0; Win64; x64) AppleWebKit/537.36 (KHTML, like Gecko) Chrome/110.0.0.0 Safari/537.36" etag="zg2vEN5Olyhu8d-RWewx" version="20.8.20" type="github">
  <diagram name="Page-1" id="V6ayBbucOvnAWrsVe2Jj">
    <mxGraphModel dx="977" dy="601" grid="1" gridSize="10" guides="1" tooltips="1" connect="1" arrows="1" fold="1" page="1" pageScale="1" pageWidth="850" pageHeight="1100" math="0" shadow="0">
      <root>
        <mxCell id="0" />
        <mxCell id="1" parent="0" />
        <mxCell id="fd3yVPnsMAiGDeqCmwbW-9" value="" style="rounded=0;whiteSpace=wrap;html=1;" vertex="1" parent="1">
          <mxGeometry x="200" y="280" width="480" height="180" as="geometry" />
        </mxCell>
        <mxCell id="fd3yVPnsMAiGDeqCmwbW-11" style="edgeStyle=orthogonalEdgeStyle;rounded=0;orthogonalLoop=1;jettySize=auto;html=1;" edge="1" parent="1" source="fd3yVPnsMAiGDeqCmwbW-1" target="fd3yVPnsMAiGDeqCmwbW-2">
          <mxGeometry relative="1" as="geometry" />
        </mxCell>
        <mxCell id="fd3yVPnsMAiGDeqCmwbW-1" value="MATLAB input waveforms" style="shape=cube;whiteSpace=wrap;html=1;boundedLbl=1;backgroundOutline=1;darkOpacity=0.05;darkOpacity2=0.1;" vertex="1" parent="1">
          <mxGeometry x="220" y="300" width="120" height="80" as="geometry" />
        </mxCell>
        <mxCell id="fd3yVPnsMAiGDeqCmwbW-12" style="edgeStyle=orthogonalEdgeStyle;rounded=0;orthogonalLoop=1;jettySize=auto;html=1;" edge="1" parent="1" source="fd3yVPnsMAiGDeqCmwbW-2" target="fd3yVPnsMAiGDeqCmwbW-3">
          <mxGeometry relative="1" as="geometry" />
        </mxCell>
        <mxCell id="fd3yVPnsMAiGDeqCmwbW-2" value="Binary file generator" style="shape=cube;whiteSpace=wrap;html=1;boundedLbl=1;backgroundOutline=1;darkOpacity=0.05;darkOpacity2=0.1;" vertex="1" parent="1">
          <mxGeometry x="380" y="300" width="120" height="80" as="geometry" />
        </mxCell>
        <mxCell id="fd3yVPnsMAiGDeqCmwbW-16" style="edgeStyle=orthogonalEdgeStyle;rounded=0;orthogonalLoop=1;jettySize=auto;html=1;" edge="1" parent="1" source="fd3yVPnsMAiGDeqCmwbW-3" target="fd3yVPnsMAiGDeqCmwbW-14">
          <mxGeometry relative="1" as="geometry" />
        </mxCell>
        <mxCell id="fd3yVPnsMAiGDeqCmwbW-3" value="USB communication protocol" style="shape=cube;whiteSpace=wrap;html=1;boundedLbl=1;backgroundOutline=1;darkOpacity=0.05;darkOpacity2=0.1;" vertex="1" parent="1">
          <mxGeometry x="540" y="300" width="120" height="80" as="geometry" />
        </mxCell>
        <mxCell id="fd3yVPnsMAiGDeqCmwbW-10" value="&lt;h1&gt;System Software running on Host PC&lt;/h1&gt;" style="text;html=1;strokeColor=none;fillColor=none;spacing=5;spacingTop=-20;whiteSpace=wrap;overflow=hidden;rounded=0;" vertex="1" parent="1">
          <mxGeometry x="220" y="410" width="440" height="120" as="geometry" />
        </mxCell>
        <mxCell id="fd3yVPnsMAiGDeqCmwbW-14" value="FPGA" style="shape=cube;whiteSpace=wrap;html=1;boundedLbl=1;backgroundOutline=1;darkOpacity=0.05;darkOpacity2=0.1;" vertex="1" parent="1">
          <mxGeometry x="700" y="300" width="120" height="80" as="geometry" />
        </mxCell>
      </root>
    </mxGraphModel>
  </diagram>
</mxfile>
